<svg xmlns="http://www.w3.org/2000/svg" width="55" height="55" viewBox="0 0 55 55">
    <g fill="none" fill-rule="evenodd" stroke="#FFF" stroke-linecap="round" stroke-linejoin="round" stroke-width="2">
        <path d="M22 18.56l12 7.501-12 7.5zM13.931 39.623a.826.826 0 0 1-.828.824.826.826 0 0 1-.827-.824c0-.454.37-.822.827-.822.457 0 .828.368.828.822zM8.966 39.623h38.068"/>
        <path d="M49.825 45.56H5.175A2.184 2.184 0 0 1 3 43.369V11.193C3 9.985 3.97 9 5.175 9h44.65C51.03 9 52 9.985 52 11.193v32.175c0 1.208-.97 2.193-2.175 2.193z"/>
    </g>
</svg>
