<svg xmlns="http://www.w3.org/2000/svg" width="41" height="40" viewBox="0 0 41 40">
    <g fill="none" fill-rule="evenodd" stroke="#222" stroke-linecap="round" stroke-linejoin="round" stroke-width="2">
        <path d="M33.996 32.36V3.655H9.854c-1.027 0-1.858.771-1.858 1.722v29.278"/>
        <path d="M32.758 34.655c0-1.295.554-2.345 1.238-2.345H10.472c-1.367 0-2.476 1.05-2.476 2.345 0 1.295 1.11 2.345 2.476 2.345h23.524c-.684 0-1.238-1.05-1.238-2.345zM27.161 15.839l-8.722 8.72-3.58.717.715-3.583 8.721-8.72a2.028 2.028 0 0 1 3.46 1.432c0 .538-.214 1.054-.594 1.434zM22.74 14.528l2.865 2.866"/>
    </g>
</svg>
