<svg xmlns="http://www.w3.org/2000/svg" width="55" height="56" viewBox="0 0 55 56">
    <g fill="none" fill-rule="evenodd" stroke="#000" stroke-linecap="round" stroke-linejoin="round" stroke-width="2">
        <path d="M22 19.06l12 7.501-12 7.5zM13.931 40.123a.826.826 0 0 1-.828.824.826.826 0 0 1-.827-.824c0-.454.37-.822.827-.822.457 0 .828.368.828.822zM8.966 40.123h38.068"/>
        <path d="M49.825 46.06H5.175A2.184 2.184 0 0 1 3 43.869V11.693C3 10.485 3.97 9.5 5.175 9.5h44.65c1.205 0 2.175.985 2.175 2.193v32.175c0 1.208-.97 2.193-2.175 2.193z"/>
    </g>
</svg>
