<svg xmlns="http://www.w3.org/2000/svg" width="40" height="40" viewBox="0 0 40 40">
    <g fill="none" fill-rule="evenodd" stroke="#EEE" stroke-linecap="round" stroke-linejoin="round" stroke-width="2">
        <path d="M37 20c0 9.389-7.611 17-17 17S3 29.389 3 20 10.611 3 20 3s17 7.611 17 17z"/>
        <path d="M24.69 14.725a4.69 4.69 0 1 1-9.379 0 4.69 4.69 0 0 1 9.378 0zM20 21.759c-3.166 0-6.047 1.235-7.888 2.257-1.273.706-2.078 2.113-2.078 3.66v.75c0 .85.638 1.54 1.424 1.54h17.084c.786 0 1.424-.69 1.424-1.54v-.75c0-1.547-.805-2.954-2.078-3.66-1.841-1.022-4.722-2.257-7.888-2.257z"/>
    </g>
</svg>
