<svg xmlns="http://www.w3.org/2000/svg" width="120" height="120" viewBox="0 0 120 120">
    <g fill="none" fill-rule="nonzero">
        <path stroke="#6C788F" stroke-width="2" d="M60 1C27.415 1 1 27.415 1 60s26.415 59 59 59 59-26.415 59-59S92.585 1 60 1z"/>
        <path fill="#6C788F" d="M55.714 34.071v32.572c0 2.248 1.92 4.071 4.286 4.071 2.367 0 4.286-1.823 4.286-4.071V34.07C64.286 31.823 62.366 30 60 30c-2.367 0-4.286 1.823-4.286 4.071zM59.968 85.714h.064c2.35 0 4.254-1.918 4.254-4.285 0-2.26-1.736-4.11-3.937-4.274l-.38-.012c-2.35 0-4.255 1.919-4.255 4.286 0 2.367 1.905 4.285 4.254 4.285z"/>
    </g>
</svg>
