<svg xmlns="http://www.w3.org/2000/svg" width="55" height="55" viewBox="0 0 55 55">
    <g fill="none" fill-rule="evenodd" stroke="#FFF" stroke-linecap="round" stroke-linejoin="round" stroke-width="2">
        <path d="M27.741 4c8.7 0 15.741 7.195 15.741 16.061 0 4.022-1.156 7.055-3.3 9.946-.511.689-2.036 2.526-2.146 2.667-.542.702-.76 1.139-.76 1.444v2.007c0 2.212-1.763 4.013-3.949 4.013H22.155c-2.185 0-3.948-1.8-3.948-4.013v-2.007c0-.305-.219-.742-.761-1.444-.11-.141-1.634-1.978-2.145-2.667-2.145-2.89-3.3-5.924-3.3-9.946C12 11.195 19.041 4 27.74 4z"/>
        <path d="M19.759 39.138h15.966v7.117c0 1.006-.438 1.964-1.205 2.66l-1.945 1.765c-.934.848-2.19 1.32-3.494 1.32H26.4c-1.303 0-2.56-.472-3.493-1.32l-1.945-1.765c-.767-.695-1.204-1.654-1.204-2.66v-7.117zM20.759 44.017h13.966M21.37 47.897h12.742"/>
        <path d="M24.638 40.138v-3.88c0-5.753-1.294-11.145-3.88-16.292M30.845 40.138v-3.88c0-5.753 1.294-11.145 3.88-16.292"/>
        <path d="M20.759 20.241c1.744 0 1.744 1 3.487 1 1.745 0 1.745-1 3.49-1 1.747 0 1.747 1 3.494 1s1.747-1 3.495-1"/>
    </g>
</svg>
