<svg xmlns="http://www.w3.org/2000/svg" width="40" height="40" viewBox="0 0 40 40">
    <path fill="#FFF" fill-rule="evenodd" d="M30.8 28.625c0 1.199-.923 2.175-2.057 2.175H11.257c-1.134 0-2.057-.976-2.057-2.175v-.769c0-1.799.934-3.436 2.436-4.271C13.598 22.497 16.64 21.2 20 21.2c3.36 0 6.403 1.297 8.364 2.385 1.502.835 2.436 2.472 2.436 4.271v.769zM20 9.2a5.406 5.406 0 0 1 5.4 5.4c0 2.978-2.422 5.4-5.4 5.4a5.406 5.406 0 0 1-5.4-5.4c0-2.978 2.423-5.4 5.4-5.4zM20 2C10.075 2 2 10.075 2 20s8.075 18 18 18 18-8.075 18-18S29.925 2 20 2z"/>
</svg>
