<svg xmlns="http://www.w3.org/2000/svg" width="80" height="27" viewBox="0 0 80 27">
    <g fill="#FFF" fill-rule="evenodd">
        <path d="M15.589 6.484c-.389-.24-.804-.46-1.249-.66a11.141 11.141 0 0 0-1.366-.514 11.098 11.098 0 0 0-1.403-.334 8.023 8.023 0 0 0-2.937.031 4.139 4.139 0 0 0-1.255.465 2.365 2.365 0 0 0-.825.778 1.98 1.98 0 0 0-.296 1.086c0 .308.045.584.133.829.09.245.212.463.367.658.154.194.333.366.532.523.2.154.412.296.634.426a60.93 60.93 0 0 0 1.685.93c.586.31 1.172.625 1.754.935.583.311 1.148.626 1.696.938.545.315 1.049.628 1.512.936.617.414 1.14.846 1.565 1.3.426.455.771.932 1.037 1.434.265.504.457 1.031.574 1.584.115.552.175 1.128.175 1.726 0 .864-.122 1.646-.364 2.348a6.32 6.32 0 0 1-1.02 1.874 6.82 6.82 0 0 1-1.546 1.427c-.596.4-1.244.73-1.944.99-.701.259-1.438.452-2.213.578-.774.127-1.56.19-2.356.19-.765 0-1.526-.042-2.281-.128a14.132 14.132 0 0 1-3.351-.817 3.719 3.719 0 0 1-.926-.486 2.232 2.232 0 0 1-.644-.722c-.16-.286-.24-.642-.24-1.067 0-.334.061-.628.18-.88.12-.254.287-.468.5-.64.212-.173.463-.303.751-.39.286-.086.593-.129.92-.129.315 0 .625.043.93.125.306.085.607.177.903.284.636.214 1.263.367 1.88.457.617.089 1.175.136 1.675.136.481 0 .96-.041 1.435-.117a4.09 4.09 0 0 0 1.278-.416c.374-.202.68-.475.915-.825.235-.348.352-.798.352-1.347 0-.276-.041-.531-.123-.76a2.502 2.502 0 0 0-.336-.625 2.945 2.945 0 0 0-.479-.508 5.646 5.646 0 0 0-.58-.422c-.253-.16-.56-.343-.922-.545a100.119 100.119 0 0 0-2.382-1.296c-.42-.224-.816-.432-1.189-.63-.374-.199-.71-.378-1.006-.542a16.652 16.652 0 0 1-.685-.393 14.933 14.933 0 0 1-1.674-1.212c-.5-.42-.926-.882-1.278-1.395a6.044 6.044 0 0 1-.814-1.717C1.096 9.32 1 8.595 1 7.78c0-.876.123-1.656.37-2.337a5.782 5.782 0 0 1 1.022-1.791 6.324 6.324 0 0 1 1.533-1.305 8.735 8.735 0 0 1 1.903-.866 12.52 12.52 0 0 1 2.133-.477 16.79 16.79 0 0 1 2.222-.146 18.294 18.294 0 0 1 4.19.475A14.233 14.233 0 0 1 17.7 2.56l-2.11 3.925zM27.55 1.263v14.923c0 .773.016 1.456.048 2.05.035.597.101 1.124.202 1.58.097.455.23.854.397 1.19.167.335.385.629.656.882.26.247.54.446.836.597.296.154.596.267.9.347.305.08.61.136.912.163.302.026.59.04.862.04.247 0 .516-.026.808-.077.294-.052.59-.134.887-.241.294-.107.584-.245.868-.416.284-.168.543-.372.778-.606.246-.247.444-.533.588-.86.146-.33.257-.718.333-1.173.078-.452.128-.98.148-1.578.023-.598.033-1.292.033-2.084V3.363c0-.386.064-.73.19-1.028.125-.3.304-.554.532-.757.229-.202.496-.356.805-.457.31-.103.646-.154 1.01-.154.382 0 .728.057 1.04.168.313.11.58.268.8.476.223.207.396.458.515.755.121.296.181.63.181.997V15.89a62.185 62.185 0 0 1-.018 1.574 16.215 16.215 0 0 1-.212 2.296c-.126.742-.33 1.456-.613 2.147-.408.996-.928 1.821-1.56 2.481a7.932 7.932 0 0 1-2.106 1.588 9.02 9.02 0 0 1-2.463.848c-.87.167-1.742.249-2.618.249-.685 0-1.389-.051-2.107-.152a11.31 11.31 0 0 1-2.11-.508c-.69-.239-1.346-.55-1.973-.932a7.527 7.527 0 0 1-1.69-1.416 7.537 7.537 0 0 1-1.067-1.503 7.96 7.96 0 0 1-.648-1.607 10.06 10.06 0 0 1-.329-1.734 20.384 20.384 0 0 1-.103-1.887 27.69 27.69 0 0 1-.008-.711V1.263h5.295zM54.06 1.263l5.037 9.59c.191.373.41.792.654 1.264a192.133 192.133 0 0 1 1.615 3.223c.29.595.58 1.2.87 1.81.29.611.574 1.224.852 1.841.277.618.539 1.218.785 1.805h.149c-.1-.906-.188-1.796-.264-2.67a97.77 97.77 0 0 1-.2-2.652 81.934 81.934 0 0 1-.123-2.765 98.977 98.977 0 0 1-.043-3.003V1.263h4.85v22.088c0 .73-.1 1.306-.304 1.732a2.784 2.784 0 0 1-.57.8 3.248 3.248 0 0 1-.777.56c-.286.15-.597.259-.926.333a4.629 4.629 0 0 1-1.014.11 3.79 3.79 0 0 1-1.967-.54c-.608-.36-1.137-.955-1.588-1.782l-4.184-7.673c-.358-.656-.722-1.337-1.092-2.043-.37-.705-.751-1.462-1.144-2.273a83.454 83.454 0 0 1-2.504-5.7h-.174c.105.954.197 1.917.281 2.888.083.969.153 1.922.208 2.864.056.94.099 1.861.126 2.758.028.9.04 1.76.04 2.578v6.212c0 .445-.046.82-.141 1.126a2.437 2.437 0 0 1-.45.827 2.15 2.15 0 0 1-.745.578c-.299.146-.663.22-1.089.22-.425 0-.79-.074-1.092-.22a2.146 2.146 0 0 1-.749-.578 2.353 2.353 0 0 1-.444-.827c-.093-.307-.14-.681-.14-1.126V1.263h6.258zM79.5 1.263v22.699c0 .47-.051.868-.152 1.195a2.66 2.66 0 0 1-.47.878c-.21.26-.477.467-.8.621-.325.155-.707.23-1.152.23-.444 0-.829-.075-1.154-.23a2.275 2.275 0 0 1-.8-.62 2.655 2.655 0 0 1-.467-.88c-.103-.326-.152-.723-.152-1.194V1.263H79.5z"/>
    </g>
</svg>
