<svg xmlns="http://www.w3.org/2000/svg" width="55" height="56" viewBox="0 0 55 56">
    <g fill="none" fill-rule="evenodd" stroke="#000" stroke-linecap="round" stroke-linejoin="round" stroke-width="2">
        <path d="M19 20h18M19 25h18M7 30.5h6.56c1.811 0 3.28 1.566 3.28 3.5 0 1.933 1.469 3.5 3.28 3.5h14.76c1.811 0 3.28-1.567 3.28-3.5 0-1.934 1.469-3.5 3.28-3.5H48"/>
        <path d="M7 30.5v17.273C7 49.279 8.102 50.5 9.46 50.5h36.08c1.358 0 2.46-1.221 2.46-2.727V30.5M45 24.5l3 6M7 30.5l3-6M11 30.5V8.179c0-1.48 1.087-2.679 2.429-2.679h21.856L45 16.214V30.5"/>
        <path d="M35 5.5v8.25c0 1.519 1.12 2.75 2.5 2.75H45"/>
    </g>
</svg>
