<svg xmlns="http://www.w3.org/2000/svg" xmlns:xlink="http://www.w3.org/1999/xlink" width="40" height="40" viewBox="0 0 40 40">
    <defs>
        <path id="a" d="M0 0h32v36H0z"/>
    </defs>
    <g fill="none" fill-rule="evenodd" transform="translate(4 2)">
        <mask id="b" fill="#fff">
            <use xlink:href="#a"/>
        </mask>
        <path fill="#FFF" d="M24 9.692H8c-.34 0-.615-.31-.615-.692 0-.383.275-.693.615-.693h16c.34 0 .615.31.615.693 0 .382-.275.692-.615.692m0 4.153H8c-.34 0-.615-.309-.615-.69 0-.384.275-.693.615-.693h16c.34 0 .615.31.615.692 0 .382-.275.691-.615.691M15.385 18H8c-.34 0-.615-.31-.615-.693 0-.383.275-.692.615-.692h7.385c.34 0 .615.31.615.692 0 .383-.275.693-.615.693M29.538 0H2.462C1.104 0 0 1.242 0 2.77v32.537c0 .281.149.533.38.64A.547.547 0 0 0 .615 36c.16 0 .318-.07.436-.204l7.204-8.104h21.283c1.358 0 2.462-1.242 2.462-2.77V2.77C32 1.242 30.896 0 29.538 0" mask="url(#b)"/>
    </g>
</svg>
