<svg xmlns="http://www.w3.org/2000/svg" xmlns:xlink="http://www.w3.org/1999/xlink" width="55" height="55" viewBox="0 0 55 55">
    <defs>
        <rect id="b" width="660" height="436" rx="20"/>
        <filter id="a" width="104.8%" height="107.3%" x="-2.4%" y="-3.2%" filterUnits="objectBoundingBox">
            <feOffset dy="2" in="SourceAlpha" result="shadowOffsetOuter1"/>
            <feGaussianBlur in="shadowOffsetOuter1" result="shadowBlurOuter1" stdDeviation="5"/>
            <feColorMatrix in="shadowBlurOuter1" values="0 0 0 0 0.798461069 0 0 0 0 0.83129593 0 0 0 0 0.905174366 0 0 0 0.8 0"/>
        </filter>
    </defs>
    <g fill="none" fill-rule="evenodd">
        <path fill="#F4F7FD" d="M-595-410h720v3356h-720z"/>
        <g transform="translate(-565 -40)">
            <use fill="#000" filter="url(#a)" xlink:href="#b"/>
            <use fill="#FFF" xlink:href="#b"/>
        </g>
        <g stroke="#000" stroke-linecap="round" stroke-linejoin="round" stroke-width="2">
            <path d="M9.622 23.457c-1.413.86-2.65 1.616-3.554 2.17C5.44 26.012 5 26.69 5 27.5c0 .81.44 1.488 1.068 1.873 4.955 3.049 14.874 9.13 19.876 12.094.46.274.988.433 1.556.433.568 0 1.096-.16 1.556-.432 5.002-2.965 14.921-9.046 19.876-12.095C49.56 28.989 50 28.31 50 27.5s-.44-1.487-1.068-1.873L45.39 23.45"/>
            <path d="M50 19.4c0-.81-.44-1.488-1.068-1.874-4.955-3.047-14.874-9.13-19.876-12.094A3.041 3.041 0 0 0 27.5 5a3.1 3.1 0 0 0-1.556.432S11.029 14.488 6.068 17.526A2.192 2.192 0 0 0 5 19.4c0 .81.44 1.488 1.068 1.874 4.955 3.047 14.874 9.129 19.876 12.094.46.272.988.432 1.556.432.568 0 1.096-.16 1.556-.432 5.002-2.965 14.921-9.047 19.876-12.094C49.56 20.888 50 20.21 50 19.4z"/>
            <path d="M9.622 31.557c-1.413.86-2.65 1.617-3.554 2.17A2.19 2.19 0 0 0 5 35.6c0 .81.44 1.488 1.068 1.874 4.955 3.047 14.874 9.129 19.876 12.094.46.273.988.432 1.556.432.568 0 1.096-.16 1.556-.432 5.002-2.965 14.921-9.047 19.876-12.094C49.56 37.088 50 36.41 50 35.6s-.44-1.487-1.068-1.873L45.39 31.55"/>
        </g>
    </g>
</svg>
