<svg xmlns="http://www.w3.org/2000/svg" width="32" height="32" viewBox="0 0 32 32">
    <g fill="#6C788F" fill-rule="evenodd">
        <path fill-rule="nonzero" d="M17.09 6.415a1 1 0 0 0-2 0v9.676a1 1 0 0 0 .294.707l5.122 5.122a1 1 0 1 0 1.415-1.414l-4.83-4.83V6.416z"/>
        <path fill-rule="nonzero" d="M25.408 8.392l-.874-.237.27-.442c.21.218.41.444.604.679zm-3.277-.143a1 1 0 0 0 .591 1.488l4.714 1.275c.84.228 1.55-.654 1.148-1.427A14.07 14.07 0 0 0 16.09 2C8.308 2 2 8.308 2 16.09c0 7.783 6.308 14.092 14.09 14.092 7.783 0 14.092-6.309 14.092-14.091a1 1 0 1 0-2 0c0 6.678-5.413 12.09-12.091 12.09C9.413 28.182 4 22.77 4 16.092S9.413 4 16.09 4c2.525 0 4.907.78 6.882 2.15l.309.221-1.15 1.878z"/>
        <path d="M19 16a3 3 0 0 0-6 0 3 3 0 0 0 6 0z"/>
    </g>
</svg>
