<svg xmlns="http://www.w3.org/2000/svg" width="40" height="40" viewBox="0 0 40 40">
    <g fill="none" fill-rule="evenodd" stroke="#EEE" stroke-linecap="round" stroke-linejoin="round" stroke-width="2">
        <path d="M32.621 32.31V3H9.76C8.787 3 8 3.787 8 4.758v29.898"/>
        <path d="M31.448 34.655c0-1.295.525-2.345 1.173-2.345H10.344a2.345 2.345 0 0 0 0 4.69h22.277c-.648 0-1.173-1.05-1.173-2.345zM26.165 15.839l-8.722 8.72-3.581.717.716-3.583 8.721-8.72a2.028 2.028 0 0 1 3.46 1.432c0 .538-.214 1.054-.594 1.434zM21.743 14.528l2.866 2.866"/>
    </g>
</svg>
