<svg xmlns="http://www.w3.org/2000/svg" width="80" height="80" viewBox="0 0 80 80">
    <path fill="#DDD" fill-rule="nonzero" d="M40 0c22.091 0 40 17.909 40 40S62.091 80 40 80 0 62.091 0 40 17.909 0 40 0zm0 1.333C18.645 1.333 1.333 18.645 1.333 40S18.645 78.667 40 78.667 78.667 61.355 78.667 40 61.355 1.333 40 1.333zm-.021 50.096l.254.007a2.849 2.849 0 0 1 2.624 2.85 2.847 2.847 0 0 1-2.836 2.857h-.042a2.847 2.847 0 0 1-2.836-2.857 2.847 2.847 0 0 1 2.836-2.857zM40 20c1.578 0 2.857 1.215 2.857 2.714V44.43c0 1.499-1.279 2.714-2.857 2.714-1.578 0-2.857-1.215-2.857-2.714V22.714C37.143 21.215 38.422 20 40 20z"/>
</svg>
