<svg xmlns="http://www.w3.org/2000/svg" width="55" height="55" viewBox="0 0 55 55">
    <g fill="none" fill-rule="evenodd">
        <path stroke="#000" stroke-linecap="round" stroke-linejoin="round" stroke-width="2" d="M47.605 43.74H8.5a2.5 2.5 0 0 1-2.5-2.5V15.204a2.5 2.5 0 0 1 2.5-2.5h39.103a2.5 2.5 0 0 1 2.5 2.5V41.24a2.5 2.5 0 0 1-2.5 2.5zM23.476 44.086S24.11 51 20.068 51h15.97c-4.042 0-3.41-6.914-3.41-6.914M7 36.933h42.104"/>
        <path fill="#000" d="M29.964 25.048c0-1.294-.55-2.11-1.713-2.11-.955 0-1.795.714-1.972 2.11h3.685zm-5.964.97C24 22.92 26.053 21 28.218 21 30.708 21 32 22.92 32 25.557c0 .46-.049.919-.113 1.14H26.31c.194 1.566 1.163 2.381 2.504 2.381.744 0 1.391-.238 2.038-.663l.807 1.53c-.888.647-2.035 1.055-3.167 1.055C25.972 31 24 29.146 24 26.018z"/>
        <path stroke="#000" stroke-linecap="round" stroke-linejoin="round" stroke-width="2" d="M28.778 39.837a.726.726 0 1 1-1.452 0 .726.726 0 0 1 1.452 0zM34.223 5.034A20.152 20.152 0 0 0 27.87 4c-2.222 0-4.353.372-6.352 1.034M33.134 9.193a16.477 16.477 0 0 0-5.196-.846 16.48 16.48 0 0 0-5.198.846"/>
    </g>
</svg>
