<svg xmlns="http://www.w3.org/2000/svg" width="40" height="40" viewBox="0 0 40 40">
    <path fill="#FFF" fill-rule="evenodd" d="M18.846 4.77a1.386 1.386 0 0 1 2.77 0v.088a11.96 11.96 0 0 0-1.385-.088c-.469 0-.93.035-1.385.088V4.77zm16.616 26.348c0-1.123-.498-1.868-1.075-2.728-.99-1.478-2.346-3.502-2.346-9.245V16.58c0-5.557-3.863-10.218-9.041-11.469V4.77A2.773 2.773 0 0 0 20.231 2a2.773 2.773 0 0 0-2.769 2.77v.341c-5.178 1.251-9.041 5.912-9.041 11.469v2.565c0 5.743-1.356 7.767-2.346 9.245C5.498 29.25 5 29.995 5 31.118c0 2.809 6.521 3.701 11.15 3.983.342 1.69 1.979 2.899 4.081 2.899 2.065 0 3.726-1.23 4.079-2.899 4.63-.281 11.152-1.174 11.152-3.983z"/>
</svg>
