<svg xmlns="http://www.w3.org/2000/svg" width="55" height="56" viewBox="0 0 55 56">
    <g fill="none" fill-rule="evenodd" stroke="#000" stroke-linecap="round" stroke-linejoin="round" stroke-width="2">
        <path d="M44.69 23.345C44.69 13.49 36.7 5.5 26.845 5.5 16.99 5.5 9 13.49 9 23.345 9 33.2 16.99 41.19 26.845 41.19c9.856 0 17.845-7.99 17.845-17.845z"/>
        <path d="M35.379 23.345c0 9.855-3.82 17.845-8.534 17.845S18.31 33.2 18.31 23.345c0-9.855 3.82-17.845 8.534-17.845s8.534 7.99 8.534 17.845zM43.272 30.328H10.417M43.272 16.362H10.375M25.292 50.5h3.104v-3.104h-3.104zM26.845 41.19v6.207M28.396 48.948h14.742M25.293 48.948H10.552"/>
    </g>
</svg>
