<svg xmlns="http://www.w3.org/2000/svg" width="48" height="48" viewBox="0 0 48 48">
    <path fill="#A7ABBE" fill-rule="evenodd" d="M26.358 14c.18 0 .354.072.482.201l2.513 2.513a.679.679 0 0 1 0 .966L16.357 30.678a.687.687 0 0 1-1.095-.177l-.533-1.068h-1.797l-.934 3.27 3.298 3.3 3.27-.934v-1.797l-1.068-.533a.688.688 0 0 1-.177-1.095l12.997-12.998a.706.706 0 0 1 .968 0l2.513 2.513a.686.686 0 0 1-.002.969L19.732 36.069l-.03.018c-.032.03-.072.051-.111.074-.04.024-.077.048-.12.063-.012.005-.021.014-.034.017l-4.151 1.186-5.415 1.547a.682.682 0 0 1-.844-.844l1.545-5.416 1.187-4.15a.698.698 0 0 1 .16-.271l.011-.024 13.942-14.066a.685.685 0 0 1 .484-.203zm4.997-4.321c.905-.906 2.471-.904 3.373-.001l3.574 3.582A2.37 2.37 0 0 1 39 14.95c0 .637-.246 1.236-.698 1.687l-2.204 2.19a.59.59 0 0 1-.84-.002l-6.084-6.095a.599.599 0 0 1-.001-.843z"/>
</svg>
