<svg xmlns="http://www.w3.org/2000/svg" width="55" height="56" viewBox="0 0 55 56">
    <g fill="none" fill-rule="evenodd" stroke="#000" stroke-linecap="round" stroke-linejoin="round" stroke-width="2">
        <path d="M48.777 35.2A23.486 23.486 0 0 0 50 27.75c0-2.607-.441-5.107-1.223-7.45M45.399 34.3a19.177 19.177 0 0 0 1.001-6.095c0-2.133-.36-4.178-1.001-6.096M36.066 5.5c-.748 0-1.471.267-2.039.753L20.299 18.1H7.7A2.7 2.7 0 0 0 5 20.8v14.4a2.7 2.7 0 0 0 2.7 2.7h12.599l13.728 11.847a3.136 3.136 0 0 0 5.173-2.375V8.628A3.131 3.131 0 0 0 36.066 5.5z"/>
    </g>
</svg>
