<svg xmlns="http://www.w3.org/2000/svg" width="40" height="40" viewBox="0 0 40 40">
    <g fill="#6C788F" fill-rule="evenodd">
        <path d="M8 6h3v7H8zM8 19h3v15H8zM21.5 34h-3v-6h3zM21.5 22h-3V6h3z"/>
        <path fill-rule="nonzero" d="M9.5 10.5a5 5 0 1 1 0 10 5 5 0 0 1 0-10zm0 3a2 2 0 1 0 0 4 2 2 0 0 0 0-4zM20 30.5a5 5 0 1 1 0-10 5 5 0 0 1 0 10zm0-3a2 2 0 1 0 0-4 2 2 0 0 0 0 4z"/>
        <path d="M29 6h3v7h-3zM29 19h3v15h-3z"/>
        <path fill-rule="nonzero" d="M30.5 10.5a5 5 0 1 1 0 10 5 5 0 0 1 0-10zm0 3a2 2 0 1 0 0 4 2 2 0 0 0 0-4z"/>
    </g>
</svg>
