<svg xmlns="http://www.w3.org/2000/svg" width="55" height="55" viewBox="0 0 55 55">
    <g fill="none" fill-rule="evenodd" stroke="#FFF" stroke-linecap="round" stroke-linejoin="round" stroke-width="2">
        <path d="M44.69 22.845C44.69 12.99 36.7 5 26.845 5 16.99 5 9 12.99 9 22.845 9 32.7 16.99 40.69 26.845 40.69c9.856 0 17.845-7.99 17.845-17.845z"/>
        <path d="M35.379 22.845c0 9.855-3.82 17.845-8.534 17.845S18.31 32.7 18.31 22.845C18.31 12.99 22.13 5 26.845 5s8.534 7.99 8.534 17.845zM43.272 29.828H10.417M43.272 15.862H10.375M25.292 50h3.104v-3.104h-3.104zM26.845 40.69v6.207M28.396 48.448h14.742M25.293 48.448H10.552"/>
    </g>
</svg>
