<svg xmlns="http://www.w3.org/2000/svg" xmlns:xlink="http://www.w3.org/1999/xlink" width="32" height="32" viewBox="0 0 32 32">
    <defs>
        <path id="a" d="M0 0h32v32H0z"/>
    </defs>
    <g fill="none" fill-rule="evenodd">
        <mask id="b" fill="#fff">
            <use xlink:href="#a"/>
        </mask>
        <path fill="#222" fill-rule="nonzero" d="M29.65 4.922L13.888 16.25 9.78 10.77l-2.4 1.8 5.872 7.832L31.4 7.358z" mask="url(#b)" transform="rotate(-15 19.39 12.662)"/>
        <path fill="#222" fill-rule="nonzero" d="M14.5 2.5c7.732 0 14 6.268 14 14s-6.268 14-14 14-14-6.268-14-14 6.268-14 14-14zm0 3c-6.075 0-11 4.925-11 11s4.925 11 11 11 11-4.925 11-11-4.925-11-11-11z" mask="url(#b)"/>
    </g>
</svg>
