<svg xmlns="http://www.w3.org/2000/svg" xmlns:xlink="http://www.w3.org/1999/xlink" width="120" height="120" viewBox="0 0 120 120">
    <defs>
        <circle id="a" cx="60" cy="60" r="60"/>
    </defs>
    <g fill="none" fill-rule="evenodd">
        <g>
            <mask id="b" fill="#fff">
                <use xlink:href="#a"/>
            </mask>
            <use fill="#D3D9E4" xlink:href="#a"/>
            <path fill="#FFF" d="M56 104.881l-8.929 4.33c-1.225.59-2.742.581-3.947-.023l-10.035-5.028a1.47 1.47 0 0 0-1.4.035c-.43.246-.689.686-.689 1.159v9.774c0 .5.29.958.761 1.193l24.225 12.08c.205.105.433.156.664.156.254 0 .507-.064.735-.197.428-.245.69-.68.69-1.153v-21.124c0-.47-.26-.908-.684-1.148a1.485 1.485 0 0 0-1.39-.054M86.917 104.166l-10.007 5.218h-.003c-1.197.631-2.717.643-3.934.026l-8.904-4.495a1.421 1.421 0 0 0-1.387.053 1.392 1.392 0 0 0-.682 1.195v21.935c0 .494.261.945.688 1.2.227.138.48.202.733.202.227 0 .458-.05.662-.16l24.158-12.545c.47-.244.759-.72.759-1.239v-10.153c0-.488-.259-.945-.688-1.2a1.415 1.415 0 0 0-1.395-.037" mask="url(#b)"/>
        </g>
        <g transform="translate(18 10)">
            <path fill="#C5CDDA" d="M42.001 62.404L18.154 74.25 42 86.096z"/>
            <path fill="#FFF" d="M30.772 12.772c-7.018 7.018-7.018 18.438 0 25.456a17.912 17.912 0 0 0 8.994 4.882l3.211 5.687a.6.6 0 0 0 1.038.015l3.463-5.766a17.928 17.928 0 0 0 8.75-4.818c7.018-7.018 7.018-18.438 0-25.456-7.018-7.018-18.438-7.018-25.456 0"/>
            <rect width="6" height="15" x="41" y="15" fill="#C5CDDA" rx="3"/>
            <circle cx="44" cy="36" r="3" fill="#C5CDDA"/>
            <path fill="#FFF" d="M18.154 74.25L42 62.404 65.846 74.25 42 86.096 18.154 74.25zm65.083 5.587L71.995 74.25l11.242-5.587A1.36 1.36 0 0 0 84 67.461a1.356 1.356 0 0 0-.747-1.21l-26.48-13.593a1.422 1.422 0 0 0-1.29-.008L42 59.349l-13.485-6.7a1.422 1.422 0 0 0-1.29.009L.746 66.25A1.354 1.354 0 0 0 0 67.461c.003.506.297.97.762 1.202l11.245 5.587L.763 79.837A1.357 1.357 0 0 0 0 81.039c-.003.505.283.973.745 1.21l26.48 13.593c.204.104.43.158.655.158.218 0 .437-.052.635-.15l13.485-6.699 13.482 6.7c.199.097.417.149.639.149.224 0 .448-.054.652-.158l26.48-13.593c.462-.237.75-.705.747-1.21a1.36 1.36 0 0 0-.764-1.202z"/>
        </g>
    </g>
</svg>
