<svg xmlns="http://www.w3.org/2000/svg" width="41" height="40" viewBox="0 0 41 40">
    <g fill="none" fill-rule="evenodd" stroke="#222" stroke-linecap="round" stroke-linejoin="round" stroke-width="2">
        <path d="M37.996 26.8c0-5.633-4.567-10.2-10.2-10.2-5.633 0-10.2 4.567-10.2 10.2 0 5.634 4.567 10.2 10.2 10.2 5.633 0 10.2-4.566 10.2-10.2z"/>
        <path d="M24.396 26.8c0-5.633-4.567-10.2-10.2-10.2-5.633 0-10.2 4.567-10.2 10.2 0 5.634 4.567 10.2 10.2 10.2 5.633 0 10.2-4.566 10.2-10.2z"/>
        <path d="M31.196 13.2c0-5.634-4.567-10.2-10.2-10.2-5.633 0-10.2 4.566-10.2 10.2 0 5.633 4.567 10.2 10.2 10.2 5.633 0 10.2-4.567 10.2-10.2z"/>
    </g>
</svg>
