<svg xmlns="http://www.w3.org/2000/svg" width="55" height="55" viewBox="0 0 55 55">
    <g fill="none" fill-rule="evenodd" stroke="#000" stroke-linecap="round" stroke-linejoin="round" stroke-width="1.8">
        <path d="M32.11 19.15l-4.86 1.62-4.86-1.62v-6.48l4.86 1.62 4.86-1.62zM27.25 14.29v6.48"/>
        <path d="M24.01 12.67l3.24.81 3.24-.81M45.07 41.02H9.43A2.43 2.43 0 0 0 7 43.45v4.05h40.5v-4.05a2.43 2.43 0 0 0-2.43-2.43zM10.24 41.02h6.48V23.202h-6.48zM24.01 41.02h6.48V23.202h-6.48zM37.78 41.02h6.48V23.202h-6.48z"/>
        <path d="M28.638 7.35A2.99 2.99 0 0 0 27.249 7a2.99 2.99 0 0 0-1.386.348L7 18.342V23.2h40.5v-4.858L28.638 7.35z"/>
    </g>
</svg>
