<svg xmlns="http://www.w3.org/2000/svg" xmlns:xlink="http://www.w3.org/1999/xlink" width="120" height="121" viewBox="0 0 120 121">
    <defs>
        <circle id="a" cx="60" cy="60" r="60"/>
    </defs>
    <g fill="none" fill-rule="evenodd">
        <mask id="b" fill="#fff">
            <use xlink:href="#a"/>
        </mask>
        <use fill="#D3D9E4" xlink:href="#a"/>
        <g fill-rule="nonzero" mask="url(#b)">
            <path fill="#FFF" d="M72.433 112.254H48.567c0-9.138-4.161-21.19-9.534-25.724-7.587-6.456-11.96-15.973-11.945-25.998 0-18.738 14.959-33.929 33.412-33.929s33.412 15.19 33.412 33.929c0 10.455-4.96 19.458-11.98 26.028-5.691 5.753-9.5 16.605-9.5 25.694z"/>
            <path fill="#D3D9E4" d="M64.08 114.667a1.2 1.2 0 0 1-1.193-1.207V73.65h-4.774v39.81a1.2 1.2 0 0 1-1.193 1.207h-2.386a1.2 1.2 0 0 1-1.194-1.207V73.65h-2.983c-4.277 0-7.756-3.517-7.756-7.84 0-4.324 3.48-7.842 7.756-7.842 3.914-.02 7.222 2.929 7.692 6.857.043.123.064.252.064.381v3.62h4.774v-3.62c0-.138.023-.272.066-.397.478-3.92 3.782-6.86 7.69-6.84 4.277 0 7.756 3.517 7.756 7.84 0 4.324-3.48 7.842-7.756 7.842H67.66v39.81a1.2 1.2 0 0 1-1.194 1.206H64.08zm6.563-45.842c1.646 0 2.983-1.352 2.983-3.015 0-1.664-1.337-3.018-2.983-3.018a2.999 2.999 0 0 0-2.934 2.587l-.05.209v3.237h2.984zm-20.286-6.033c-1.644 0-2.983 1.354-2.983 3.018 0 1.663 1.339 3.015 2.983 3.015h2.983v-3.247l-.048-.2a3 3 0 0 0-2.935-2.586z"/>
            <path fill="#C5CDDA" d="M46.18 109.841h28.64v10.857H46.18v-10.857zm7.16-32.571h4.773v-3.62H53.34v3.62zm9.547-3.62v3.62h4.773v-3.62h-4.773z"/>
        </g>
    </g>
</svg>
